<?xml version="1.0" standalone="no"?>
<!DOCTYPE svg PUBLIC "-//W3C//DTD SVG 20010904//EN"
 "http://www.w3.org/TR/2001/REC-SVG-20010904/DTD/svg10.dtd">
<svg version="1.0" xmlns="http://www.w3.org/2000/svg"
 width="1024.000000pt" height="1024.000000pt" viewBox="0 0 1024.000000 1024.000000"
 preserveAspectRatio="xMidYMid meet">

<g transform="translate(0.000000,1024.000000) scale(0.100000,-0.100000)"
fill="#000000" stroke="none">
<path d="M4339 7810 c-105 -18 -200 -80 -255 -166 -64 -99 -64 -105 -64 -761
l0 -592 -627 -3 -628 -3 -59 -24 c-40 -16 -77 -42 -120 -85 -65 -64 -99 -124
-116 -204 -7 -30 -10 -342 -8 -872 l3 -825 23 -58 c43 -105 126 -190 229 -232
46 -19 77 -20 675 -23 l627 -3 3 -627 c3 -592 4 -629 22 -672 30 -70 75 -127
130 -164 100 -68 74 -66 947 -66 l788 0 65 23 c80 30 139 76 181 141 62 99 59
66 63 743 l3 622 627 3 627 3 67 33 c85 41 152 109 192 192 l31 65 0 855 c0
803 -1 858 -18 911 -37 111 -138 210 -254 248 -62 20 -81 21 -668 21 l-604 0
-3 618 c-3 612 -3 617 -25 672 -49 121 -168 211 -304 230 -77 11 -1484 11
-1550 0z m1122 -645 c61 -21 112 -65 140 -122 l24 -48 5 -600 c5 -645 4 -629
57 -677 49 -45 77 -48 390 -48 164 0 313 4 331 10 19 5 70 36 114 69 116 88
211 110 337 77 96 -26 195 -111 240 -206 l26 -55 3 -389 c3 -453 3 -456 -82
-542 -37 -37 -67 -56 -106 -69 -75 -24 -134 -59 -155 -92 -37 -56 -121 -136
-170 -161 -49 -26 -56 -27 -280 -32 -254 -6 -272 -10 -336 -73 -38 -37 -48
-58 -74 -149 -21 -77 -63 -124 -128 -143 -28 -8 -52 -15 -54 -15 -2 0 -3 129
-3 288 0 269 1 289 20 320 40 65 64 72 263 72 l177 0 58 -58 c43 -44 69 -62
105 -72 212 -58 378 182 254 367 -89 133 -296 135 -385 3 l-23 -35 -197 -6
c-174 -5 -204 -8 -257 -29 -79 -31 -154 -105 -186 -185 l-24 -60 0 -630 c0
-585 -1 -633 -18 -670 -23 -50 -70 -100 -122 -128 -38 -21 -55 -22 -328 -25
l-287 -3 -54 24 c-66 30 -110 86 -125 158 -7 32 -11 252 -11 619 0 379 -4 578
-11 597 -15 40 -48 73 -94 94 -37 17 -78 19 -615 19 -537 0 -578 2 -616 19
-61 28 -109 75 -135 133 -24 53 -24 56 -24 403 0 336 1 352 21 395 28 59 77
108 139 136 l50 24 570 0 c533 0 573 2 610 19 46 21 79 54 94 94 7 19 11 218
11 597 0 379 4 587 11 622 9 44 20 62 63 103 28 28 67 56 86 62 22 7 148 11
346 12 254 1 319 -2 355 -14z"/>
<path d="M5029 6506 c-71 -25 -117 -74 -144 -151 -35 -105 13 -232 108 -281
l27 -15 0 -238 c0 -351 9 -373 254 -617 125 -124 163 -156 221 -185 65 -32 76
-34 170 -34 140 0 178 20 345 182 84 81 140 127 162 133 18 6 104 10 192 10
l158 0 41 -46 c51 -58 105 -84 177 -84 66 0 123 24 167 71 106 112 76 312 -57
379 -106 53 -253 13 -305 -83 l-19 -36 -195 -3 c-190 -3 -198 -4 -256 -31 -44
-21 -90 -59 -185 -151 -69 -68 -135 -129 -147 -135 -35 -18 -129 -13 -171 8
-44 23 -265 237 -311 300 -44 62 -50 94 -52 286 -2 266 -1 285 15 285 8 0 34
19 58 43 49 47 68 97 68 178 0 159 -166 271 -321 215z"/>
<path d="M4071 5329 c-85 -16 -159 -79 -190 -162 -17 -44 -13 -137 8 -182 45
-100 118 -149 221 -150 86 0 151 32 200 99 l35 47 230 -3 c230 -3 230 -3 276
-30 91 -54 141 -134 159 -254 5 -38 10 -227 10 -419 l0 -350 -47 -35 c-31 -22
-57 -53 -73 -85 -78 -157 35 -345 207 -345 70 0 114 15 163 57 56 49 80 101
80 182 0 81 -26 139 -83 183 -71 54 -67 23 -67 457 0 438 -4 475 -62 584 -45
83 -131 167 -214 208 l-68 34 -253 5 -252 5 -38 54 c-58 83 -143 118 -242 100z"/>
</g>
</svg>
