<?xml version="1.0" encoding="UTF-8"?>
<!DOCTYPE svg PUBLIC "-//W3C//DTD SVG 1.1//EN" "http://www.w3.org/Graphics/SVG/1.1/DTD/svg11.dtd">
<svg xmlns="http://www.w3.org/2000/svg" version="1.1" width="1024px" height="410px" style="shape-rendering:geometricPrecision; text-rendering:geometricPrecision; image-rendering:optimizeQuality; fill-rule:evenodd; clip-rule:evenodd" xmlns:xlink="http://www.w3.org/1999/xlink">
<g><path style="opacity:1" fill="#fefefe" d="M -0.5,-0.5 C 340.833,-0.5 682.167,-0.5 1023.5,-0.5C 1023.5,136.167 1023.5,272.833 1023.5,409.5C 682.167,409.5 340.833,409.5 -0.5,409.5C -0.5,272.833 -0.5,136.167 -0.5,-0.5 Z"/></g>
<g><path style="opacity:1" fill="#2991d4" d="M 211.5,28.5 C 214.762,30.4203 217.762,32.7537 220.5,35.5C 221.79,36.0577 222.623,37.0577 223,38.5C 224.988,47.1791 222.155,53.5125 214.5,57.5C 210.486,57.6655 206.486,57.4988 202.5,57C 200.413,56.2078 198.579,55.0412 197,53.5C 196.601,53.7284 196.435,54.0618 196.5,54.5C 195.849,53.9094 195.182,53.2427 194.5,52.5C 183.556,56.2805 175.556,63.2805 170.5,73.5C 168.124,77.4054 167.124,81.7387 167.5,86.5C 167.333,107.503 167.5,128.503 168,149.5C 169.476,162.441 173.976,174.108 181.5,184.5C 184.167,189.167 187.833,192.833 192.5,195.5C 197.645,198.909 202.979,202.076 208.5,205C 214.828,207.327 221.162,209.16 227.5,210.5C 231.386,211.624 236.052,212.29 241.5,212.5C 248.538,212.359 255.205,211.026 261.5,208.5C 282.333,201.663 297.999,188.663 308.5,169.5C 310.267,167.208 311.267,164.542 311.5,161.5C 311.54,158.012 312.207,154.679 313.5,151.5C 314.663,128.337 314.83,105.004 314,81.5C 313.76,79.1484 312.927,77.1484 311.5,75.5C 310.667,70.4846 308.334,66.4846 304.5,63.5C 299.163,58.8275 293.163,55.1609 286.5,52.5C 284.736,54.2776 282.736,55.6109 280.5,56.5C 279.305,56.6775 278.138,57.0109 277,57.5C 273.206,56.7703 269.373,56.2703 265.5,56C 263.043,54.4877 263.043,53.1544 265.5,52C 263.866,51.5065 262.199,51.3398 260.5,51.5C 259.746,46.5365 259.413,41.5365 259.5,36.5C 260.675,36.719 261.675,36.3857 262.5,35.5C 263.833,32.5067 265.833,30.1734 268.5,28.5C 276.231,26.0097 282.564,28.1763 287.5,35C 307.91,39.5756 321.576,51.7422 328.5,71.5C 329.774,99.619 329.774,127.952 328.5,156.5C 325.872,164.333 323.539,172.333 321.5,180.5C 319.007,186.98 315.341,192.646 310.5,197.5C 310.565,197.062 310.399,196.728 310,196.5C 306.861,200.483 303.027,203.483 298.5,205.5C 297.914,205.291 297.414,204.957 297,204.5C 296.512,206.814 295.345,209.147 293.5,211.5C 286.315,214.588 278.981,217.421 271.5,220C 272.167,220.333 272.833,220.667 273.5,221C 272.584,221.278 271.918,221.778 271.5,222.5C 269.898,224.074 267.898,224.741 265.5,224.5C 259.623,225.443 253.789,226.443 248,227.5C 247.169,258.336 247.336,289.003 248.5,319.5C 249.167,319.5 249.5,319.833 249.5,320.5C 248.582,325.081 249.915,329.081 253.5,332.5C 265.569,346.422 279.903,349.255 296.5,341C 299.295,339.207 301.795,337.04 304,334.5C 304.446,331.667 303.946,329.001 302.5,326.5C 302.629,321.155 302.629,315.822 302.5,310.5C 304.582,302.426 309.248,296.426 316.5,292.5C 319.707,292.876 322.373,291.876 324.5,289.5C 330.807,288.336 337.141,288.169 343.5,289C 348.568,291.409 353.235,293.576 357.5,295.5C 361.787,298.797 364.454,303.131 365.5,308.5C 365.766,311.666 366.099,314.833 366.5,318C 364.983,323.055 363.983,328.221 363.5,333.5C 363.573,335.027 362.906,336.027 361.5,336.5C 360.175,337.953 359.342,337.619 359,335.5C 357.902,336.967 356.402,337.801 354.5,338C 355.885,339.965 355.718,341.798 354,343.5C 353,339.833 351.333,339.5 349,342.5C 348.781,343.938 348.281,345.271 347.5,346.5C 344.548,347.068 341.881,348.234 339.5,350C 334.299,350.214 329.299,350.381 324.5,350.5C 321.625,349.635 318.958,348.302 316.5,346.5C 310.2,353.48 302.533,358.147 293.5,360.5C 290.273,360.676 287.273,361.343 284.5,362.5C 284.5,363.167 284.167,363.5 283.5,363.5C 278.731,362.111 273.731,361.444 268.5,361.5C 261.371,360.602 255.371,357.602 250.5,352.5C 247.785,349.118 244.785,346.118 241.5,343.5C 237.6,339.699 235.266,335.033 234.5,329.5C 234.048,325.837 233.548,322.17 233,318.5C 232.5,288.168 232.333,257.835 232.5,227.5C 230.5,227.5 228.5,227.5 226.5,227.5C 226.167,227.5 225.833,227.5 225.5,227.5C 222.911,225.843 220.244,225.509 217.5,226.5C 216.833,226.5 216.5,226.167 216.5,225.5C 214.485,224.076 212.152,223.41 209.5,223.5C 208.209,223.737 207.209,223.404 206.5,222.5C 203.253,219.921 199.586,218.255 195.5,217.5C 170.846,204.493 156.18,184.16 151.5,156.5C 152.332,130.67 152.832,104.67 153,78.5C 155.477,72.4433 158.144,66.4433 161,60.5C 162.11,58.9632 163.61,58.2965 165.5,58.5C 165.34,56.8008 165.506,55.1341 166,53.5C 166.667,52.1667 167.333,52.1667 168,53.5C 168.837,49.8426 170.67,46.8426 173.5,44.5C 179.268,39.6159 185.935,36.2826 193.5,34.5C 198.366,28.6554 204.366,26.6554 211.5,28.5 Z"/></g>
<g><path style="opacity:1" fill="#2692d7" d="M 244.5,80.5 C 249.347,81.09 252.347,83.7566 253.5,88.5C 253.173,97.6822 253.507,106.682 254.5,115.5C 262.507,115.334 270.507,115.5 278.5,116C 279.745,116.791 281.078,117.291 282.5,117.5C 284.262,118.262 285.262,119.596 285.5,121.5C 287.136,126.334 286.803,131.001 284.5,135.5C 282.99,136.836 281.323,138.003 279.5,139C 271.323,139.171 263.323,139.671 255.5,140.5C 254.671,147.009 254.005,153.676 253.5,160.5C 253.573,162.027 252.906,163.027 251.5,163.5C 248.802,163.908 246.469,165.074 244.5,167C 241.518,167.498 238.518,167.665 235.5,167.5C 231.689,166.937 229.023,164.937 227.5,161.5C 226.973,154.113 226.306,147.446 225.5,141.5C 224.833,141.5 224.167,141.5 223.5,141.5C 216.647,140.725 209.647,140.058 202.5,139.5C 200.973,139.573 199.973,138.906 199.5,137.5C 197.981,133.18 196.648,128.847 195.5,124.5C 196.351,122.118 197.684,120.118 199.5,118.5C 201.255,117.928 202.922,117.094 204.5,116C 211.826,115.5 219.159,115.334 226.5,115.5C 226.5,106.833 226.5,98.1667 226.5,89.5C 227.393,85.6049 229.726,82.9382 233.5,81.5C 237.119,80.7564 240.785,80.423 244.5,80.5 Z"/></g>
<g><path style="opacity:1" fill="#154c6d" d="M 244.5,80.5 C 240.785,80.423 237.119,80.7564 233.5,81.5C 235.29,80.0027 237.456,79.336 240,79.5C 241.707,79.5085 243.207,79.8418 244.5,80.5 Z"/></g>
<g><path style="opacity:1" fill="#204a63" d="M 170.5,73.5 C 169.66,77.9854 168.66,82.3187 167.5,86.5C 167.124,81.7387 168.124,77.4054 170.5,73.5 Z"/></g>
<g><path style="opacity:1" fill="#2a5b7d" d="M 304.5,63.5 C 308.334,66.4846 310.667,70.4846 311.5,75.5C 309.182,71.5355 306.848,67.5355 304.5,63.5 Z"/></g>
<g><path style="opacity:1" fill="#326c93" d="M 214.5,57.5 C 207.89,60.6021 201.89,59.6021 196.5,54.5C 196.435,54.0618 196.601,53.7284 197,53.5C 198.579,55.0412 200.413,56.2078 202.5,57C 206.486,57.4988 210.486,57.6655 214.5,57.5 Z"/></g>
<g><path style="opacity:1" fill="#337faf" d="M 268.5,28.5 C 265.833,30.1734 263.833,32.5067 262.5,35.5C 261.675,36.3857 260.675,36.719 259.5,36.5C 259.413,41.5365 259.746,46.5365 260.5,51.5C 262.199,51.3398 263.866,51.5065 265.5,52C 263.043,53.1544 263.043,54.4877 265.5,56C 269.373,56.2703 273.206,56.7703 277,57.5C 278.138,57.0109 279.305,56.6775 280.5,56.5C 272.134,61.2326 264.968,59.5659 259,51.5C 254.849,40.7837 258.015,33.117 268.5,28.5 Z"/></g>
<g><path style="opacity:1" fill="#295d7d" d="M 211.5,28.5 C 215.975,28.9787 218.975,31.312 220.5,35.5C 217.762,32.7537 214.762,30.4203 211.5,28.5 Z"/></g>
<g><path style="opacity:1" fill="#3e84ae" d="M 253.5,88.5 C 254.222,88.9175 254.722,89.5842 255,90.5C 255.5,98.4931 255.666,106.493 255.5,114.5C 254.833,114.5 254.5,114.833 254.5,115.5C 253.507,106.682 253.173,97.6822 253.5,88.5 Z"/></g>
<g><path style="opacity:1" fill="#0e4566" d="M 226.5,89.5 C 226.5,98.1667 226.5,106.833 226.5,115.5C 219.159,115.334 211.826,115.5 204.5,116C 202.922,117.094 201.255,117.928 199.5,118.5C 200.343,116.827 201.676,115.66 203.5,115C 210.826,114.5 218.159,114.334 225.5,114.5C 225.174,105.983 225.507,97.6499 226.5,89.5 Z"/></g>
<g><path style="opacity:1" fill="#174867" d="M 254.5,115.5 C 254.5,114.833 254.833,114.5 255.5,114.5C 263.507,114.334 271.507,114.5 279.5,115C 280.942,115.377 281.942,116.21 282.5,117.5C 281.078,117.291 279.745,116.791 278.5,116C 270.507,115.5 262.507,115.334 254.5,115.5 Z"/></g>
<g><path style="opacity:1" fill="#1b4765" d="M 285.5,121.5 C 286.997,123.29 287.664,125.456 287.5,128C 287.894,131.168 286.894,133.668 284.5,135.5C 286.803,131.001 287.136,126.334 285.5,121.5 Z"/></g>
<g><path style="opacity:1" fill="#195274" d="M 328.5,71.5 C 328.838,73.854 329.338,76.1873 330,78.5C 330.667,104.167 330.667,129.833 330,155.5C 329.809,157.708 329.309,159.708 328.5,161.5C 328.5,159.833 328.5,158.167 328.5,156.5C 329.774,127.952 329.774,99.619 328.5,71.5 Z"/></g>
<g><path style="opacity:1" fill="#29658a" d="M 195.5,124.5 C 196.648,128.847 197.981,133.18 199.5,137.5C 195.997,133.969 194.663,129.636 195.5,124.5 Z"/></g>
<g><path style="opacity:1" fill="#0c4263" d="M 311.5,75.5 C 312.927,77.1484 313.76,79.1484 314,81.5C 314.83,105.004 314.663,128.337 313.5,151.5C 313.667,128.498 313.5,105.498 313,82.5C 312.338,80.1873 311.838,77.854 311.5,75.5 Z"/></g>
<g><path style="opacity:1" fill="#2872a0" d="M 173.5,44.5 C 170.67,46.8426 168.837,49.8426 168,53.5C 167.333,52.1667 166.667,52.1667 166,53.5C 165.506,55.1341 165.34,56.8008 165.5,58.5C 163.61,58.2965 162.11,58.9632 161,60.5C 158.144,66.4433 155.477,72.4433 153,78.5C 152.832,104.67 152.332,130.67 151.5,156.5C 150.032,130.146 150.198,103.813 152,77.5C 154.698,63.4005 161.864,52.4005 173.5,44.5 Z"/></g>
<g><path style="opacity:1" fill="#4183ae" d="M 284.5,135.5 C 283.473,138.858 281.14,140.525 277.5,140.5C 270.167,140.5 262.833,140.5 255.5,140.5C 263.323,139.671 271.323,139.171 279.5,139C 281.323,138.003 282.99,136.836 284.5,135.5 Z"/></g>
<g><path style="opacity:1" fill="#194866" d="M 202.5,139.5 C 209.647,140.058 216.647,140.725 223.5,141.5C 217.158,141.666 210.825,141.5 204.5,141C 203.584,140.722 202.918,140.222 202.5,139.5 Z"/></g>
<g><path style="opacity:1" fill="#0e486d" d="M 227.5,161.5 C 226.778,161.082 226.278,160.416 226,159.5C 225.501,153.509 225.334,147.509 225.5,141.5C 226.306,147.446 226.973,154.113 227.5,161.5 Z"/></g>
<g><path style="opacity:1" fill="#265471" d="M 255.5,140.5 C 262.833,140.5 270.167,140.5 277.5,140.5C 270.352,141.492 263.019,141.825 255.5,141.5C 255.666,146.844 255.499,152.177 255,157.5C 254.768,158.737 254.268,159.737 253.5,160.5C 254.005,153.676 254.671,147.009 255.5,140.5 Z"/></g>
<g><path style="opacity:1" fill="#295677" d="M 311.5,161.5 C 311.267,164.542 310.267,167.208 308.5,169.5C 308.733,166.458 309.733,163.792 311.5,161.5 Z"/></g>
<g><path style="opacity:1" fill="#387eaa" d="M 328.5,156.5 C 328.5,158.167 328.5,159.833 328.5,161.5C 327.926,168.562 325.593,174.895 321.5,180.5C 323.539,172.333 325.872,164.333 328.5,156.5 Z"/></g>
<g><path style="opacity:1" fill="#23526e" d="M 251.5,163.5 C 250.106,165.708 248.106,167.208 245.5,168C 241.973,168.808 238.64,168.641 235.5,167.5C 238.518,167.665 241.518,167.498 244.5,167C 246.469,165.074 248.802,163.908 251.5,163.5 Z"/></g>
<g><path style="opacity:1" fill="#507181" d="M 901.5,182.5 C 905.167,181.167 908.833,181.167 912.5,182.5C 911.833,182.5 911.5,182.833 911.5,183.5C 908.5,183.5 905.5,183.5 902.5,183.5C 902.5,182.833 902.167,182.5 901.5,182.5 Z"/></g>
<g><path style="opacity:1" fill="#23597b" d="M 181.5,184.5 C 185.5,187.833 189.167,191.5 192.5,195.5C 187.833,192.833 184.167,189.167 181.5,184.5 Z"/></g>
<g><path style="opacity:1" fill="#328dc6" d="M 653.5,182.5 C 661.494,181.329 664.994,184.663 664,192.5C 663.535,193.931 662.701,195.097 661.5,196C 654.979,198.215 650.979,196.048 649.5,189.5C 650.071,186.687 651.404,184.354 653.5,182.5 Z"/></g>
<g><path style="opacity:1" fill="#032947" d="M 390.5,185.5 C 387.888,184.629 385.221,183.963 382.5,183.5C 372.013,182.506 361.346,182.172 350.5,182.5C 350.5,207.833 350.5,233.167 350.5,258.5C 353.833,258.5 357.167,258.5 360.5,258.5C 360.833,258.5 361.167,258.5 361.5,258.5C 362.167,258.5 362.5,258.833 362.5,259.5C 358.167,259.5 353.833,259.5 349.5,259.5C 349.5,233.5 349.5,207.5 349.5,181.5C 360.838,181.333 372.172,181.5 383.5,182C 386.281,182.522 388.615,183.689 390.5,185.5 Z"/></g>
<g><path style="opacity:1" fill="#214e6a" d="M 441.5,204.5 C 438.167,204.833 434.833,205.167 431.5,205.5C 434.737,203.624 438.07,203.29 441.5,204.5 Z"/></g>
<g><path style="opacity:1" fill="#3b7aa0" d="M 478.5,204.5 C 473.684,205.326 468.684,205.826 463.5,206C 461.146,206.847 458.812,207.68 456.5,208.5C 459.534,205.759 463.201,204.259 467.5,204C 471.188,203.55 474.854,203.717 478.5,204.5 Z"/></g>
<g><path style="opacity:1" fill="#31709a" d="M 310.5,197.5 C 306.003,203.671 300.336,208.338 293.5,211.5C 295.345,209.147 296.512,206.814 297,204.5C 297.414,204.957 297.914,205.291 298.5,205.5C 303.027,203.483 306.861,200.483 310,196.5C 310.399,196.728 310.565,197.062 310.5,197.5 Z"/></g>
<g><path style="opacity:1" fill="#3a81ac" d="M 541.5,209.5 C 535.499,207.458 529.332,206.125 523,205.5C 518.154,207 513.321,208.667 508.5,210.5C 513.055,205.73 518.721,203.397 525.5,203.5C 529.602,203.811 533.602,204.644 537.5,206C 539.093,206.949 540.426,208.115 541.5,209.5 Z"/></g>
<g><path style="opacity:1" fill="#174b6a" d="M 751.5,215.5 C 754.962,214.518 758.629,214.185 762.5,214.5C 762.5,211.833 762.5,209.167 762.5,206.5C 758.167,206.5 753.833,206.5 749.5,206.5C 749.5,202.167 749.5,197.833 749.5,193.5C 746.167,193.5 742.833,193.5 739.5,193.5C 739.817,197.702 739.483,201.702 738.5,205.5C 738.5,201.167 738.5,196.833 738.5,192.5C 742.5,192.5 746.5,192.5 750.5,192.5C 750.5,196.833 750.5,201.167 750.5,205.5C 754.833,205.5 759.167,205.5 763.5,205.5C 763.5,208.833 763.5,212.167 763.5,215.5C 759.5,215.5 755.5,215.5 751.5,215.5 Z"/></g>
<g><path style="opacity:1" fill="#2c93d3" d="M 541.5,209.5 C 543.822,210.802 545.155,212.802 545.5,215.5C 545.5,217.167 545.5,218.833 545.5,220.5C 541.988,221.055 538.988,220.388 536.5,218.5C 536.141,216.629 535.141,215.129 533.5,214C 526.569,213.359 519.903,213.525 513.5,214.5C 513.537,217.649 513.204,220.815 512.5,224C 519.635,226.618 526.968,228.618 534.5,230C 536.167,231 537.833,232 539.5,233C 536.514,232.872 533.514,232.872 530.5,233C 530.833,233.333 531.167,233.667 531.5,234C 529.114,234.284 528.448,235.284 529.5,237C 527.618,237.198 525.952,237.698 524.5,238.5C 523.833,238.5 523.5,238.167 523.5,237.5C 521.162,235.96 518.495,235.294 515.5,235.5C 511.391,235.041 508.391,233.041 506.5,229.5C 504.27,224.652 503.937,219.652 505.5,214.5C 505.738,212.596 506.738,211.262 508.5,210.5C 513.321,208.667 518.154,207 523,205.5C 529.332,206.125 535.499,207.458 541.5,209.5 Z"/></g>
<g><path style="opacity:1" fill="#2492d6" d="M 652.5,206.5 C 655.167,206.5 657.833,206.5 660.5,206.5C 660.5,223.167 660.5,239.833 660.5,256.5C 657.833,256.5 655.167,256.5 652.5,256.5C 652.83,240.325 652.496,224.325 651.5,208.5C 651.328,207.508 651.662,206.842 652.5,206.5 Z"/></g>
<g><path style="opacity:1" fill="#306c93" d="M 261.5,208.5 C 255.205,211.026 248.538,212.359 241.5,212.5C 236.052,212.29 231.386,211.624 227.5,210.5C 238.902,211.661 250.236,210.994 261.5,208.5 Z"/></g>
<g><path style="opacity:1" fill="#327097" d="M 400.5,196.5 C 403.904,202.795 404.404,209.461 402,216.5C 401.8,218.32 400.966,219.653 399.5,220.5C 401.495,212.564 401.828,204.564 400.5,196.5 Z"/></g>
<g><path style="opacity:1" fill="#3877a0" d="M 625.5,222.5 C 626.588,220.417 627.588,218.251 628.5,216C 627.572,215.612 626.905,214.945 626.5,214C 627.998,210.138 627.331,209.638 624.5,212.5C 627.444,206.377 632.444,203.377 639.5,203.5C 640.772,203.57 641.938,203.903 643,204.5C 643.667,208.167 643.667,211.833 643,215.5C 639.589,216.293 636.089,216.793 632.5,217C 629.692,218.316 627.359,220.15 625.5,222.5 Z"/></g>
<g><path style="opacity:1" fill="#2c96d6" d="M 637.5,204.5 C 638.833,204.5 640.167,204.5 641.5,204.5C 641.5,207.833 641.5,211.167 641.5,214.5C 637.275,215.556 633.109,215.556 629,214.5C 628.32,212.024 629.153,210.191 631.5,209C 630.833,208.667 630.167,208.333 629.5,208C 632.122,206.525 634.788,205.359 637.5,204.5 Z"/></g>
<g><path style="opacity:1" fill="#2b92d2" d="M 813.5,211.5 C 817.696,215.217 820.362,219.884 821.5,225.5C 820.971,231.577 819.971,237.577 818.5,243.5C 817.849,244.091 817.182,244.757 816.5,245.5C 815.15,244.05 813.484,243.383 811.5,243.5C 812.134,237.504 812.3,231.504 812,225.5C 809.431,221.905 807.764,217.905 807,213.5C 806,214.167 805,214.833 804,215.5C 799.84,213.163 795.34,211.996 790.5,212C 789.13,210.559 788.13,208.892 787.5,207C 792.5,206.333 797.5,206.333 802.5,207C 806.403,208.036 810.07,209.536 813.5,211.5 Z"/></g>
<g><path style="opacity:1" fill="#376076" d="M 441.5,204.5 C 442.483,208.298 442.817,212.298 442.5,216.5C 439.167,216.5 435.833,216.5 432.5,216.5C 435.171,214.882 438.171,214.215 441.5,214.5C 441.5,211.167 441.5,207.833 441.5,204.5 Z"/></g>
<g><path style="opacity:1" fill="#3075a1" d="M 293.5,211.5 C 287.032,216.734 279.698,220.401 271.5,222.5C 271.918,221.778 272.584,221.278 273.5,221C 272.833,220.667 272.167,220.333 271.5,220C 278.981,217.421 286.315,214.588 293.5,211.5 Z"/></g>
<g><path style="opacity:1" fill="#47a4db" d="M 683.5,208.5 C 680.609,207.597 677.609,207.264 674.5,207.5C 674.5,231.833 674.5,256.167 674.5,280.5C 677.167,280.5 679.833,280.5 682.5,280.5C 682.5,271.5 682.5,262.5 682.5,253.5C 683.494,262.986 683.827,272.652 683.5,282.5C 680.167,282.5 676.833,282.5 673.5,282.5C 673.5,257.167 673.5,231.833 673.5,206.5C 677.329,205.931 680.663,206.598 683.5,208.5 Z"/></g>
<g><path style="opacity:1" fill="#fbfdfe" d="M 711.5,221.5 C 713.755,225.859 714.755,230.526 714.5,235.5C 713.495,240.485 711.162,244.818 707.5,248.5C 703.658,250.002 699.658,250.668 695.5,250.5C 690.345,248.012 687.012,244.012 685.5,238.5C 684.849,231.804 686.015,225.471 689,219.5C 697.209,212.453 704.709,213.119 711.5,221.5 Z"/></g>
<g><path style="opacity:1" fill="#318cc4" d="M 699.5,203.5 C 714.08,203.247 722.913,210.247 726,224.5C 728.631,237.16 725.465,247.994 716.5,257C 714.593,258.122 712.593,258.955 710.5,259.5C 705.156,259.666 699.823,259.499 694.5,259C 692.109,257.691 692.109,256.691 694.5,256C 693.216,255.316 692.049,255.483 691,256.5C 690.626,255.584 690.126,254.75 689.5,254C 691.132,252.18 693.132,251.014 695.5,250.5C 698.304,251.638 701.304,251.805 704.5,251C 705.942,250.623 706.942,249.79 707.5,248.5C 711.162,244.818 713.495,240.485 714.5,235.5C 714.163,239.308 714.663,242.974 716,246.5C 717.814,247.76 719.647,247.76 721.5,246.5C 725.633,237.368 725.466,228.368 721,219.5C 720.667,220.5 720.333,221.5 720,222.5C 719.788,220.22 718.955,218.22 717.5,216.5C 718.756,214.004 718.09,212.004 715.5,210.5C 714.808,211.025 714.308,211.692 714,212.5C 711.255,208.567 709.421,208.567 708.5,212.5C 707.205,211.902 705.872,211.402 704.5,211C 705.833,210.333 705.833,209.667 704.5,209C 705.449,208.383 706.282,208.549 707,209.5C 708.171,208.107 709.671,207.273 711.5,207C 707.282,206.158 703.282,204.992 699.5,203.5 Z"/></g>
<g><path style="opacity:1" fill="#2d95d6" d="M 751.5,215.5 C 751.167,215.5 750.833,215.5 750.5,215.5C 749.341,225.658 749.175,235.992 750,246.5C 750.422,248.426 751.589,249.426 753.5,249.5C 755.988,251.388 758.988,252.055 762.5,251.5C 762.5,253.833 762.5,256.167 762.5,258.5C 756.659,258.855 750.992,258.188 745.5,256.5C 745.5,255.5 745.5,254.5 745.5,253.5C 743.5,252.833 741.5,252.167 739.5,251.5C 739.5,239.167 739.5,226.833 739.5,214.5C 736.167,214.5 732.833,214.5 729.5,214.5C 729.5,211.833 729.5,209.167 729.5,206.5C 732.713,206.81 735.713,206.477 738.5,205.5C 739.483,201.702 739.817,197.702 739.5,193.5C 742.833,193.5 746.167,193.5 749.5,193.5C 749.5,197.833 749.5,202.167 749.5,206.5C 753.833,206.5 758.167,206.5 762.5,206.5C 762.5,209.167 762.5,211.833 762.5,214.5C 758.629,214.185 754.962,214.518 751.5,215.5 Z"/></g>
<g><path style="opacity:1" fill="#64a6c5" d="M 894.5,256.5 C 891.797,258.11 888.797,259.11 885.5,259.5C 883.864,258.251 882.697,256.584 882,254.5C 880.389,249.835 878.889,245.168 877.5,240.5C 877.67,239.178 877.337,238.011 876.5,237C 871.167,236.833 865.833,236.667 860.5,236.5C 854.789,236.505 849.456,237.172 844.5,238.5C 842.906,245.675 840.239,252.341 836.5,258.5C 833.167,258.5 829.833,258.5 826.5,258.5C 826.5,257.5 826.5,256.5 826.5,255.5C 835.704,231.42 845.204,207.42 855,183.5C 858.442,181.267 862.108,180.933 866,182.5C 876.001,207.006 885.501,231.673 894.5,256.5 Z"/></g>
<g><path style="opacity:1" fill="#fafdfd" d="M 871.5,227.5 C 864.137,227.831 856.803,227.497 849.5,226.5C 850.246,225.264 850.579,223.93 850.5,222.5C 853.695,214.774 857.195,207.108 861,199.5C 865.002,208.675 868.502,218.008 871.5,227.5 Z"/></g>
<g><path style="opacity:1" fill="#2b6285" d="M 195.5,217.5 C 199.586,218.255 203.253,219.921 206.5,222.5C 202.418,221.624 198.751,219.957 195.5,217.5 Z"/></g>
<g><path style="opacity:1" fill="#23597a" d="M 505.5,214.5 C 503.937,219.652 504.27,224.652 506.5,229.5C 504.073,227.492 503.073,224.826 503.5,221.5C 503.316,218.795 503.983,216.462 505.5,214.5 Z"/></g>
<g><path style="opacity:1" fill="#20516e" d="M 545.5,215.5 C 547.074,217.102 547.741,219.102 547.5,221.5C 543.445,221.824 539.445,221.491 535.5,220.5C 534.873,219.583 534.539,218.583 534.5,217.5C 535.167,217.833 535.833,218.167 536.5,218.5C 538.988,220.388 541.988,221.055 545.5,220.5C 545.5,218.833 545.5,217.167 545.5,215.5 Z"/></g>
<g><path style="opacity:1" fill="#52a3d2" d="M 382.5,183.5 C 372.167,183.5 361.833,183.5 351.5,183.5C 351.5,208.167 351.5,232.833 351.5,257.5C 354.713,257.19 357.713,257.523 360.5,258.5C 357.167,258.5 353.833,258.5 350.5,258.5C 350.5,233.167 350.5,207.833 350.5,182.5C 361.346,182.172 372.013,182.506 382.5,183.5 Z"/></g>
<g><path style="opacity:1" fill="#1d4c6a" d="M 600.5,213.5 C 603.181,216.192 604.514,219.525 604.5,223.5C 600.029,224.089 596.029,223.423 592.5,221.5C 596.029,223.423 600.029,224.089 604.5,223.5C 604.514,219.525 603.181,216.192 600.5,213.5 Z"/></g>
<g><path style="opacity:1" fill="#1c5a7e" d="M 652.5,206.5 C 652.5,206.167 652.5,205.833 652.5,205.5C 655.833,205.5 659.167,205.5 662.5,205.5C 662.5,223.167 662.5,240.833 662.5,258.5C 662.167,258.5 661.833,258.5 661.5,258.5C 661.83,240.992 661.497,223.659 660.5,206.5C 657.833,206.5 655.167,206.5 652.5,206.5 Z"/></g>
<g><path style="opacity:1" fill="#2b93d5" d="M 382.5,183.5 C 385.221,183.963 387.888,184.629 390.5,185.5C 395.419,187.634 398.752,191.3 400.5,196.5C 401.828,204.564 401.495,212.564 399.5,220.5C 396.487,226.842 391.487,230.509 384.5,231.5C 376.833,231.5 369.167,231.5 361.5,231.5C 361.5,240.5 361.5,249.5 361.5,258.5C 361.167,258.5 360.833,258.5 360.5,258.5C 357.713,257.523 354.713,257.19 351.5,257.5C 351.5,232.833 351.5,208.167 351.5,183.5C 361.833,183.5 372.167,183.5 382.5,183.5 Z"/></g>
<g><path style="opacity:1" fill="#427599" d="M 375.5,192.5 C 371.5,192.5 367.5,192.5 363.5,192.5C 363.5,202.167 363.5,211.833 363.5,221.5C 370.301,221.872 376.967,221.206 383.5,219.5C 382.158,220.793 380.491,221.626 378.5,222C 372.916,222.806 367.416,222.639 362,221.5C 361.5,211.506 361.334,201.506 361.5,191.5C 366.363,191.181 371.03,191.514 375.5,192.5 Z"/></g>
<g><path style="opacity:1" fill="#1e5679" d="M 389.5,202.5 C 390.798,206.408 390.632,210.408 389,214.5C 387.924,217.079 386.091,218.746 383.5,219.5C 388.261,214.886 390.261,209.22 389.5,202.5 Z"/></g>
<g><path style="opacity:1" fill="#fafdfd" d="M 375.5,192.5 C 381.909,193.373 386.576,196.707 389.5,202.5C 390.261,209.22 388.261,214.886 383.5,219.5C 376.967,221.206 370.301,221.872 363.5,221.5C 363.5,211.833 363.5,202.167 363.5,192.5C 367.5,192.5 371.5,192.5 375.5,192.5 Z"/></g>
<g><path style="opacity:1" fill="#3b6f92" d="M 738.5,205.5 C 735.713,206.477 732.713,206.81 729.5,206.5C 729.5,209.167 729.5,211.833 729.5,214.5C 732.833,214.5 736.167,214.5 739.5,214.5C 739.5,226.833 739.5,239.167 739.5,251.5C 738.683,249.031 738.183,246.365 738,243.5C 737.5,234.173 737.334,224.839 737.5,215.5C 734.5,215.5 731.5,215.5 728.5,215.5C 728.5,212.167 728.5,208.833 728.5,205.5C 731.833,205.5 735.167,205.5 738.5,205.5 Z"/></g>
<g><path style="opacity:1" fill="#29526f" d="M 209.5,223.5 C 212.152,223.41 214.485,224.076 216.5,225.5C 213.848,225.59 211.515,224.924 209.5,223.5 Z"/></g>
<g><path style="opacity:1" fill="#104367" d="M 217.5,226.5 C 220.244,225.509 222.911,225.843 225.5,227.5C 222.794,227.425 220.127,227.092 217.5,226.5 Z"/></g>
<g><path style="opacity:1" fill="#2a92d3" d="M 478.5,204.5 C 487.302,206.967 492.635,212.634 494.5,221.5C 495.127,226.141 495.46,230.807 495.5,235.5C 482.15,235.167 468.817,235.501 455.5,236.5C 455.957,237.298 456.624,237.631 457.5,237.5C 459.386,248.124 465.719,252.291 476.5,250C 478.388,248.606 480.388,247.44 482.5,246.5C 485.904,244.346 489.57,244.012 493.5,245.5C 493.154,246.696 492.654,246.696 492,245.5C 491.506,247.134 491.34,248.801 491.5,250.5C 490.127,250.343 488.793,250.51 487.5,251C 487.833,251.333 488.167,251.667 488.5,252C 487.733,253.47 487.067,254.97 486.5,256.5C 485.089,258.539 483.089,259.539 480.5,259.5C 474.167,260.833 467.833,260.833 461.5,259.5C 457.402,258.728 454.069,256.728 451.5,253.5C 451.405,250.642 450.238,248.309 448,246.5C 446.363,239.438 445.196,232.438 444.5,225.5C 446.045,221.407 447.879,217.407 450,213.5C 451.777,211.21 453.944,209.543 456.5,208.5C 458.812,207.68 461.146,206.847 463.5,206C 468.684,205.826 473.684,205.326 478.5,204.5 Z"/></g>
<g><path style="opacity:1" fill="#f8fdfe" d="M 480.5,217.5 C 482.391,220.614 483.724,223.948 484.5,227.5C 475.5,227.5 466.5,227.5 457.5,227.5C 457.5,226.167 457.5,224.833 457.5,223.5C 463.117,214.015 470.783,212.015 480.5,217.5 Z"/></g>
<g><path style="opacity:1" fill="#337fad" d="M 480.5,217.5 C 470.783,212.015 463.117,214.015 457.5,223.5C 457.528,220.749 458.528,218.415 460.5,216.5C 457.833,215.5 457.833,214.5 460.5,213.5C 462.224,214.661 463.89,214.495 465.5,213C 469.167,212.333 472.833,212.333 476.5,213C 478.384,214.049 479.718,215.549 480.5,217.5 Z"/></g>
<g><path style="opacity:1" fill="#0e4567" d="M 457.5,223.5 C 457.5,224.833 457.5,226.167 457.5,227.5C 466.5,227.5 475.5,227.5 484.5,227.5C 475.348,228.494 466.015,228.827 456.5,228.5C 456.216,226.585 456.549,224.919 457.5,223.5 Z"/></g>
<g><path style="opacity:1" fill="#2a5367" d="M 850.5,222.5 C 850.579,223.93 850.246,225.264 849.5,226.5C 856.803,227.497 864.137,227.831 871.5,227.5C 864.888,228.648 856.888,228.815 847.5,228C 848.229,225.942 849.229,224.109 850.5,222.5 Z"/></g>
<g><path style="opacity:1" fill="#092736" d="M 901.5,182.5 C 902.167,182.5 902.5,182.833 902.5,183.5C 902.5,208.5 902.5,233.5 902.5,258.5C 905.5,258.5 908.5,258.5 911.5,258.5C 911.5,233.5 911.5,208.5 911.5,183.5C 911.5,182.833 911.833,182.5 912.5,182.5C 912.5,208.167 912.5,233.833 912.5,259.5C 908.833,259.5 905.167,259.5 901.5,259.5C 901.5,233.833 901.5,208.167 901.5,182.5 Z"/></g>
<g><path style="opacity:1" fill="#82c2de" d="M 902.5,183.5 C 905.5,183.5 908.5,183.5 911.5,183.5C 911.5,208.5 911.5,233.5 911.5,258.5C 908.5,258.5 905.5,258.5 902.5,258.5C 902.5,233.5 902.5,208.5 902.5,183.5 Z"/></g>
<g><path style="opacity:1" fill="#63aaca" d="M 903.5,184.5 C 905.5,184.5 907.5,184.5 909.5,184.5C 909.5,208.5 909.5,232.5 909.5,256.5C 907.5,256.5 905.5,256.5 903.5,256.5C 903.5,232.5 903.5,208.5 903.5,184.5 Z"/></g>
<g><path style="opacity:1" fill="#16486a" d="M 555.5,221.5 C 555.032,227.329 554.365,232.996 553.5,238.5C 553.334,233.821 553.501,229.155 554,224.5C 554.232,223.263 554.732,222.263 555.5,221.5 Z"/></g>
<g><path style="opacity:1" fill="#4eaae0" d="M 660.5,206.5 C 661.497,223.659 661.83,240.992 661.5,258.5C 658.167,258.5 654.833,258.5 651.5,258.5C 651.5,241.833 651.5,225.167 651.5,208.5C 652.496,224.325 652.83,240.325 652.5,256.5C 655.167,256.5 657.833,256.5 660.5,256.5C 660.5,239.833 660.5,223.167 660.5,206.5 Z"/></g>
<g><path style="opacity:1" fill="#143f59" d="M 750.5,215.5 C 750.334,225.506 750.5,235.506 751,245.5C 751.662,246.984 752.496,248.317 753.5,249.5C 751.589,249.426 750.422,248.426 750,246.5C 749.175,235.992 749.341,225.658 750.5,215.5 Z"/></g>
<g><path style="opacity:1" fill="#49a7de" d="M 422.5,213.5 C 421.539,211.735 421.205,209.735 421.5,207.5C 418.833,207.5 416.167,207.5 413.5,207.5C 413.5,223.833 413.5,240.167 413.5,256.5C 416.167,256.5 418.833,256.5 421.5,256.5C 421.173,246.652 421.506,236.986 422.5,227.5C 422.5,237.833 422.5,248.167 422.5,258.5C 419.167,258.5 415.833,258.5 412.5,258.5C 412.5,241.167 412.5,223.833 412.5,206.5C 415.833,206.5 419.167,206.5 422.5,206.5C 422.5,208.833 422.5,211.167 422.5,213.5 Z"/></g>
<g><path style="opacity:1" fill="#3483b5" d="M 536.5,218.5 C 535.833,218.167 535.167,217.833 534.5,217.5C 529.466,214.205 524.133,213.705 518.5,216C 514.161,219.621 514.495,222.621 519.5,225C 525.833,226.667 532.167,228.333 538.5,230C 546.724,233.971 549.558,240.471 547,249.5C 544.737,255.268 540.57,258.601 534.5,259.5C 528.33,260.452 522.33,260.785 516.5,260.5C 508.164,257.832 503.497,252.166 502.5,243.5C 506.5,243.5 510.5,243.5 514.5,243.5C 514.5,244.5 514.5,245.5 514.5,246.5C 520.595,250.918 527.095,251.585 534,248.5C 535.128,246.655 535.628,244.655 535.5,242.5C 532.302,239.989 528.636,238.655 524.5,238.5C 525.952,237.698 527.618,237.198 529.5,237C 528.448,235.284 529.114,234.284 531.5,234C 531.167,233.667 530.833,233.333 530.5,233C 533.514,232.872 536.514,232.872 539.5,233C 537.833,232 536.167,231 534.5,230C 526.968,228.618 519.635,226.618 512.5,224C 513.204,220.815 513.537,217.649 513.5,214.5C 519.903,213.525 526.569,213.359 533.5,214C 535.141,215.129 536.141,216.629 536.5,218.5 Z"/></g>
<g><path style="opacity:1" fill="#2c94d4" d="M 624.5,212.5 C 627.331,209.638 627.998,210.138 626.5,214C 626.905,214.945 627.572,215.612 628.5,216C 627.588,218.251 626.588,220.417 625.5,222.5C 623.989,224.476 623.156,226.809 623,229.5C 622.5,238.827 622.334,248.161 622.5,257.5C 619.375,258.479 616.042,258.813 612.5,258.5C 612.5,241.167 612.5,223.833 612.5,206.5C 615.833,206.5 619.167,206.5 622.5,206.5C 622.192,208.924 622.526,211.257 623.5,213.5C 624.107,213.376 624.44,213.043 624.5,212.5 Z"/></g>
<g><path style="opacity:1" fill="#1c4f70" d="M 770.5,221.5 C 770.082,227.669 769.415,233.669 768.5,239.5C 768.334,234.489 768.501,229.489 769,224.5C 769.232,223.263 769.732,222.263 770.5,221.5 Z"/></g>
<g><path style="opacity:1" fill="#457695" d="M 494.5,221.5 C 496.602,226.474 496.935,231.641 495.5,237C 482.838,237.5 470.171,237.667 457.5,237.5C 456.624,237.631 455.957,237.298 455.5,236.5C 468.817,235.501 482.15,235.167 495.5,235.5C 495.46,230.807 495.127,226.141 494.5,221.5 Z"/></g>
<g><path style="opacity:1" fill="#2891d2" d="M 441.5,204.5 C 441.5,207.833 441.5,211.167 441.5,214.5C 438.171,214.215 435.171,214.882 432.5,216.5C 428.859,218.141 426.192,220.808 424.5,224.5C 423.833,225.5 423.167,226.5 422.5,227.5C 421.506,236.986 421.173,246.652 421.5,256.5C 418.833,256.5 416.167,256.5 413.5,256.5C 413.5,240.167 413.5,223.833 413.5,207.5C 416.167,207.5 418.833,207.5 421.5,207.5C 421.205,209.735 421.539,211.735 422.5,213.5C 423.833,213.5 424.5,212.833 424.5,211.5C 425.599,208.068 427.933,206.068 431.5,205.5C 434.833,205.167 438.167,204.833 441.5,204.5 Z"/></g>
<g><path style="opacity:1" fill="#1a4765" d="M 515.5,235.5 C 518.495,235.294 521.162,235.96 523.5,237.5C 520.505,237.706 517.838,237.04 515.5,235.5 Z"/></g>
<g><path style="opacity:1" fill="#42758d" d="M 877.5,240.5 C 876.733,239.828 876.066,238.995 875.5,238C 865.09,237.192 854.757,237.359 844.5,238.5C 849.456,237.172 854.789,236.505 860.5,236.5C 865.833,236.667 871.167,236.833 876.5,237C 877.337,238.011 877.67,239.178 877.5,240.5 Z"/></g>
<g><path style="opacity:1" fill="#0e4f74" d="M 424.5,211.5 C 424.5,212.833 423.833,213.5 422.5,213.5C 422.5,211.167 422.5,208.833 422.5,206.5C 419.167,206.5 415.833,206.5 412.5,206.5C 412.5,223.833 412.5,241.167 412.5,258.5C 415.833,258.5 419.167,258.5 422.5,258.5C 422.5,248.167 422.5,237.833 422.5,227.5C 423.167,226.5 423.833,225.5 424.5,224.5C 423.612,236.14 423.279,247.807 423.5,259.5C 419.5,259.5 415.5,259.5 411.5,259.5C 411.5,241.5 411.5,223.5 411.5,205.5C 415.5,205.5 419.5,205.5 423.5,205.5C 423.205,207.735 423.539,209.735 424.5,211.5 Z"/></g>
<g><path style="opacity:1" fill="#3d769b" d="M 567.5,222.5 C 565.811,229.999 566.311,237.333 569,244.5C 570.707,246.037 572.207,247.704 573.5,249.5C 565.358,245.275 562.525,238.608 565,229.5C 565.333,227.5 565.667,225.5 566,223.5C 566.383,222.944 566.883,222.611 567.5,222.5 Z"/></g>
<g><path style="opacity:1" fill="#053959" d="M 624.5,212.5 C 624.44,213.043 624.107,213.376 623.5,213.5C 622.526,211.257 622.192,208.924 622.5,206.5C 619.167,206.5 615.833,206.5 612.5,206.5C 612.5,223.833 612.5,241.167 612.5,258.5C 616.042,258.813 619.375,258.479 622.5,257.5C 623.167,257.5 623.5,257.833 623.5,258.5C 619.702,259.483 615.702,259.817 611.5,259.5C 611.5,241.5 611.5,223.5 611.5,205.5C 615.5,205.5 619.5,205.5 623.5,205.5C 623.198,208.059 623.532,210.393 624.5,212.5 Z"/></g>
<g><path style="opacity:1" fill="#327097" d="M 444.5,225.5 C 445.196,232.438 446.363,239.438 448,246.5C 450.238,248.309 451.405,250.642 451.5,253.5C 448.063,250.299 445.896,246.299 445,241.5C 444.501,236.177 444.334,230.844 444.5,225.5 Z"/></g>
<g><path style="opacity:1" fill="#2e8dc8" d="M 813.5,211.5 C 810.07,209.536 806.403,208.036 802.5,207C 797.5,206.333 792.5,206.333 787.5,207C 788.13,208.892 789.13,210.559 790.5,212C 795.34,211.996 799.84,213.163 804,215.5C 805,214.833 806,214.167 807,213.5C 807.764,217.905 809.431,221.905 812,225.5C 812.3,231.504 812.134,237.504 811.5,243.5C 813.484,243.383 815.15,244.05 816.5,245.5C 817.182,244.757 817.849,244.091 818.5,243.5C 818.5,244.5 818.5,245.5 818.5,246.5C 814.957,254.864 808.624,259.697 799.5,261C 783.046,262.719 772.713,255.553 768.5,239.5C 769.415,233.669 770.082,227.669 770.5,221.5C 774.496,210.063 782.662,204.063 795,203.5C 802.426,203.576 808.593,206.242 813.5,211.5 Z"/></g>
<g><path style="opacity:1" fill="#1e5273" d="M 780.5,227.5 C 780.437,232.203 780.771,236.87 781.5,241.5C 779.953,239.193 779.287,236.527 779.5,233.5C 779.505,231.304 779.838,229.304 780.5,227.5 Z"/></g>
<g><path style="opacity:1" fill="#fbfdfe" d="M 781.5,241.5 C 780.771,236.87 780.437,232.203 780.5,227.5C 786.457,212.813 795.29,210.813 807,221.5C 810.767,230.199 810.1,238.532 805,246.5C 795.295,253.064 787.462,251.398 781.5,241.5 Z"/></g>
<g><path style="opacity:1" fill="#20506f" d="M 592.5,243.5 C 596.298,242.517 600.298,242.183 604.5,242.5C 604.341,246.674 602.675,250.008 599.5,252.5C 600.95,249.764 602.284,246.931 603.5,244C 599.848,243.501 596.182,243.335 592.5,243.5 Z"/></g>
<g><path style="opacity:1" fill="#143c57" d="M 821.5,225.5 C 821.666,230.511 821.499,235.511 821,240.5C 820.76,242.852 819.927,244.852 818.5,246.5C 818.5,245.5 818.5,244.5 818.5,243.5C 819.971,237.577 820.971,231.577 821.5,225.5 Z"/></g>
<g><path style="opacity:1" fill="#062e46" d="M 684.5,211.5 C 683.596,210.791 683.263,209.791 683.5,208.5C 680.663,206.598 677.329,205.931 673.5,206.5C 673.5,231.833 673.5,257.167 673.5,282.5C 676.833,282.5 680.167,282.5 683.5,282.5C 683.5,282.833 683.5,283.167 683.5,283.5C 679.833,283.5 676.167,283.5 672.5,283.5C 672.5,257.5 672.5,231.5 672.5,205.5C 676.5,205.5 680.5,205.5 684.5,205.5C 684.5,207.5 684.5,209.5 684.5,211.5 Z"/></g>
<g><path style="opacity:1" fill="#4683a8" d="M 625.5,222.5 C 624.893,234.642 624.226,246.642 623.5,258.5C 623.5,257.833 623.167,257.5 622.5,257.5C 622.334,248.161 622.5,238.827 623,229.5C 623.156,226.809 623.989,224.476 625.5,222.5 Z"/></g>
<g><path style="opacity:1" fill="#103750" d="M 652.5,205.5 C 652.5,205.833 652.5,206.167 652.5,206.5C 651.662,206.842 651.328,207.508 651.5,208.5C 651.5,225.167 651.5,241.833 651.5,258.5C 654.833,258.5 658.167,258.5 661.5,258.5C 661.833,258.5 662.167,258.5 662.5,258.5C 658.702,259.483 654.702,259.817 650.5,259.5C 649.847,241.136 650.513,223.136 652.5,205.5 Z"/></g>
<g><path style="opacity:1" fill="#2e8fcc" d="M 600.5,213.5 C 601.577,216.307 602.577,219.14 603.5,222C 599.745,222.755 596.078,222.589 592.5,221.5C 583.855,211.99 575.522,212.324 567.5,222.5C 566.883,222.611 566.383,222.944 566,223.5C 565.667,225.5 565.333,227.5 565,229.5C 562.525,238.608 565.358,245.275 573.5,249.5C 581.549,252.356 587.883,250.356 592.5,243.5C 596.182,243.335 599.848,243.501 603.5,244C 602.284,246.931 600.95,249.764 599.5,252.5C 597.247,256.23 593.914,258.73 589.5,260C 570.532,264.354 558.532,257.187 553.5,238.5C 554.365,232.996 555.032,227.329 555.5,221.5C 558.869,211.461 565.869,205.628 576.5,204C 584.665,202.966 591.998,204.966 598.5,210C 599.823,210.816 600.489,211.983 600.5,213.5 Z"/></g>
<g><path style="opacity:1" fill="#3c83b2" d="M 685.5,238.5 C 687.012,244.012 690.345,248.012 695.5,250.5C 693.132,251.014 691.132,252.18 689.5,254C 690.126,254.75 690.626,255.584 691,256.5C 692.049,255.483 693.216,255.316 694.5,256C 692.109,256.691 692.109,257.691 694.5,259C 699.823,259.499 705.156,259.666 710.5,259.5C 705.775,261.401 700.775,261.901 695.5,261C 691.465,259.21 687.798,257.21 684.5,255C 685.65,264.089 685.817,273.255 685,282.5C 684.617,283.056 684.117,283.389 683.5,283.5C 683.5,283.167 683.5,282.833 683.5,282.5C 683.827,272.652 683.494,262.986 682.5,253.5C 682.047,252.542 681.381,251.708 680.5,251C 681.191,249.933 681.691,248.766 682,247.5C 683.11,249.037 684.61,249.703 686.5,249.5C 686.448,245.802 686.114,242.135 685.5,238.5 Z"/></g>
<g><path style="opacity:1" fill="#457799" d="M 384.5,231.5 C 377.687,232.491 370.687,232.825 363.5,232.5C 363.827,241.682 363.493,250.682 362.5,259.5C 362.5,258.833 362.167,258.5 361.5,258.5C 361.5,249.5 361.5,240.5 361.5,231.5C 369.167,231.5 376.833,231.5 384.5,231.5 Z"/></g>
<g><path style="opacity:1" fill="#2e6f97" d="M 486.5,256.5 C 487.067,254.97 487.733,253.47 488.5,252C 488.167,251.667 487.833,251.333 487.5,251C 488.793,250.51 490.127,250.343 491.5,250.5C 491.34,248.801 491.506,247.134 492,245.5C 492.654,246.696 493.154,246.696 493.5,245.5C 489.57,244.012 485.904,244.346 482.5,246.5C 482.5,245.5 482.5,244.5 482.5,243.5C 486.884,243.174 491.217,243.508 495.5,244.5C 493.921,247.994 492.087,251.327 490,254.5C 489.184,255.823 488.017,256.489 486.5,256.5 Z"/></g>
<g><path style="opacity:1" fill="#2a93d5" d="M 535.5,242.5 C 535.166,239.832 533.833,237.832 531.5,236.5C 545.193,231.864 549.526,236.531 544.5,250.5C 543.784,252.482 542.617,254.149 541,255.5C 538.501,253.278 536.668,250.944 535.5,248.5C 536.754,246.357 536.754,244.357 535.5,242.5 Z"/></g>
<g><path style="opacity:1" fill="#2b5b7b" d="M 707.5,248.5 C 706.942,249.79 705.942,250.623 704.5,251C 701.304,251.805 698.304,251.638 695.5,250.5C 699.658,250.668 703.658,250.002 707.5,248.5 Z"/></g>
<g><path style="opacity:1" fill="#09334c" d="M 265.5,224.5 C 260.125,226.57 254.458,227.904 248.5,228.5C 248.5,258.833 248.5,289.167 248.5,319.5C 247.336,289.003 247.169,258.336 248,227.5C 253.789,226.443 259.623,225.443 265.5,224.5 Z"/></g>
<g><path style="opacity:1" fill="#2891d4" d="M 699.5,203.5 C 703.282,204.992 707.282,206.158 711.5,207C 709.671,207.273 708.171,208.107 707,209.5C 706.282,208.549 705.449,208.383 704.5,209C 705.833,209.667 705.833,210.333 704.5,211C 705.872,211.402 707.205,211.902 708.5,212.5C 709.421,208.567 711.255,208.567 714,212.5C 714.308,211.692 714.808,211.025 715.5,210.5C 718.09,212.004 718.756,214.004 717.5,216.5C 718.955,218.22 719.788,220.22 720,222.5C 720.333,221.5 720.667,220.5 721,219.5C 725.466,228.368 725.633,237.368 721.5,246.5C 719.647,247.76 717.814,247.76 716,246.5C 714.663,242.974 714.163,239.308 714.5,235.5C 715.878,231.188 715.545,226.854 713.5,222.5C 713.043,221.702 712.376,221.369 711.5,221.5C 704.709,213.119 697.209,212.453 689,219.5C 686.015,225.471 684.849,231.804 685.5,238.5C 686.114,242.135 686.448,245.802 686.5,249.5C 684.61,249.703 683.11,249.037 682,247.5C 681.691,248.766 681.191,249.933 680.5,251C 681.381,251.708 682.047,252.542 682.5,253.5C 682.5,262.5 682.5,271.5 682.5,280.5C 679.833,280.5 677.167,280.5 674.5,280.5C 674.5,256.167 674.5,231.833 674.5,207.5C 677.609,207.264 680.609,207.597 683.5,208.5C 683.263,209.791 683.596,210.791 684.5,211.5C 684.56,212.043 684.893,212.376 685.5,212.5C 688.877,207.479 693.544,204.479 699.5,203.5 Z"/></g>
<g><path style="opacity:1" fill="#285c7f" d="M 711.5,221.5 C 712.376,221.369 713.043,221.702 713.5,222.5C 715.545,226.854 715.878,231.188 714.5,235.5C 714.755,230.526 713.755,225.859 711.5,221.5 Z"/></g>
<g><path style="opacity:1" fill="#2893d5" d="M 514.5,246.5 C 514.709,247.922 515.209,249.255 516,250.5C 516.333,250.167 516.667,249.833 517,249.5C 522.974,253.032 529.14,253.365 535.5,250.5C 535.154,252.634 536.154,254.467 538.5,256C 536.913,256.862 535.246,257.529 533.5,258C 526.833,258.667 520.167,258.667 513.5,258C 510.527,256.776 509.86,254.776 511.5,252C 509.423,251.808 507.423,251.308 505.5,250.5C 504.907,248.618 504.24,246.785 503.5,245C 507.492,244.039 511.159,244.539 514.5,246.5 Z"/></g>
<g><path style="opacity:1" fill="#3b80aa" d="M 753.5,249.5 C 756.833,249.5 760.167,249.5 763.5,249.5C 763.5,252.833 763.5,256.167 763.5,259.5C 756.638,261.255 749.971,260.755 743.5,258C 741.077,256.429 739.744,254.263 739.5,251.5C 741.5,252.167 743.5,252.833 745.5,253.5C 745.5,254.5 745.5,255.5 745.5,256.5C 750.992,258.188 756.659,258.855 762.5,258.5C 762.5,256.167 762.5,253.833 762.5,251.5C 758.988,252.055 755.988,251.388 753.5,249.5 Z"/></g>
<g><path style="opacity:1" fill="#023353" d="M 226.5,227.5 C 228.5,227.5 230.5,227.5 232.5,227.5C 232.333,257.835 232.5,288.168 233,318.5C 233.548,322.17 234.048,325.837 234.5,329.5C 233.037,326.797 232.204,323.797 232,320.5C 231.5,289.835 231.333,259.168 231.5,228.5C 229.585,228.784 227.919,228.451 226.5,227.5 Z"/></g>
<g><path style="opacity:1" fill="#315467" d="M 826.5,255.5 C 826.5,256.5 826.5,257.5 826.5,258.5C 829.833,258.5 833.167,258.5 836.5,258.5C 832.649,259.809 828.649,259.809 824.5,258.5C 824.942,257.261 825.609,256.261 826.5,255.5 Z"/></g>
<g><path style="opacity:1" fill="#264556" d="M 894.5,256.5 C 895.404,257.209 895.737,258.209 895.5,259.5C 892.167,259.5 888.833,259.5 885.5,259.5C 888.797,259.11 891.797,258.11 894.5,256.5 Z"/></g>
<g><path style="opacity:1" fill="#16415e" d="M 461.5,259.5 C 467.833,260.833 474.167,260.833 480.5,259.5C 477.644,261.006 474.477,261.672 471,261.5C 467.523,261.672 464.356,261.006 461.5,259.5 Z"/></g>
<g><path style="opacity:1" fill="#143e59" d="M 516.5,260.5 C 522.33,260.785 528.33,260.452 534.5,259.5C 531.814,260.991 528.814,261.657 525.5,261.5C 522.467,261.331 519.467,260.998 516.5,260.5 Z"/></g>
<g><path style="opacity:1" fill="#3a85b2" d="M 357.5,295.5 C 353.235,293.576 348.568,291.409 343.5,289C 337.141,288.169 330.807,288.336 324.5,289.5C 322.373,291.876 319.707,292.876 316.5,292.5C 319.32,289.919 322.654,288.086 326.5,287C 338.465,284.496 348.799,287.33 357.5,295.5 Z"/></g>
<g><path style="opacity:1" fill="#fbfefe" d="M 350.5,323.5 C 348.58,326.762 346.246,329.762 343.5,332.5C 334.62,336.257 326.953,334.59 320.5,327.5C 316.266,311.586 322.266,303.752 338.5,304C 347.688,307.195 351.688,313.695 350.5,323.5 Z"/></g>
<g><path style="opacity:1" fill="#33617e" d="M 302.5,310.5 C 302.629,315.822 302.629,321.155 302.5,326.5C 301.239,321.158 301.239,315.825 302.5,310.5 Z"/></g>
<g><path style="opacity:1" fill="#245474" d="M 249.5,320.5 C 250.267,324.698 251.601,328.698 253.5,332.5C 249.915,329.081 248.582,325.081 249.5,320.5 Z"/></g>
<g><path style="opacity:1" fill="#295b7c" d="M 350.5,323.5 C 350.021,327.975 347.688,330.975 343.5,332.5C 346.246,329.762 348.58,326.762 350.5,323.5 Z"/></g>
<g><path style="opacity:1" fill="#2e729a" d="M 365.5,308.5 C 366.268,309.263 366.768,310.263 367,311.5C 367.667,316.167 367.667,320.833 367,325.5C 366.295,328.476 365.129,331.142 363.5,333.5C 363.983,328.221 364.983,323.055 366.5,318C 366.099,314.833 365.766,311.666 365.5,308.5 Z"/></g>
<g><path style="opacity:1" fill="#2a749f" d="M 320.5,327.5 C 326.953,334.59 334.62,336.257 343.5,332.5C 343.196,333.15 342.863,333.817 342.5,334.5C 337.952,335.192 333.452,335.859 329,336.5C 324.302,335.189 321.468,332.189 320.5,327.5 Z"/></g>
<g><path style="opacity:1" fill="#337fb0" d="M 361.5,336.5 C 355.115,346.697 345.782,351.697 333.5,351.5C 330.449,351.402 327.449,351.069 324.5,350.5C 329.299,350.381 334.299,350.214 339.5,350C 341.881,348.234 344.548,347.068 347.5,346.5C 348.281,345.271 348.781,343.938 349,342.5C 351.333,339.5 353,339.833 354,343.5C 355.718,341.798 355.885,339.965 354.5,338C 356.402,337.801 357.902,336.967 359,335.5C 359.342,337.619 360.175,337.953 361.5,336.5 Z"/></g>
<g><path style="opacity:1" fill="#336181" d="M 241.5,343.5 C 244.785,346.118 247.785,349.118 250.5,352.5C 246.522,350.522 243.522,347.522 241.5,343.5 Z"/></g>
<g><path style="opacity:1" fill="#1a4664" d="M 293.5,360.5 C 290.829,362.118 287.829,362.785 284.5,362.5C 287.273,361.343 290.273,360.676 293.5,360.5 Z"/></g>
<g><path style="opacity:1" fill="#1e5171" d="M 268.5,361.5 C 273.731,361.444 278.731,362.111 283.5,363.5C 278.25,363.698 273.25,363.031 268.5,361.5 Z"/></g>
</svg>
